<?xml version="1.0" encoding="UTF-8"?>
<svg version="1.1" xmlns="http://www.w3.org/2000/svg" width="318" height="159">
<path d="M0 0 C104.94 0 209.88 0 318 0 C318 52.47 318 104.94 318 159 C213.06 159 108.12 159 0 159 C0 106.53 0 54.06 0 0 Z " fill="#FDFDFD" transform="translate(0,0)"/>
<path d="M0 0 C4.10393012 -0.11591764 8.20744106 -0.18715601 12.3125 -0.25 C13.47974609 -0.28351563 14.64699219 -0.31703125 15.84960938 -0.3515625 C17.52700195 -0.37089844 17.52700195 -0.37089844 19.23828125 -0.390625 C20.26993408 -0.41157227 21.30158691 -0.43251953 22.36450195 -0.45410156 C25 0 25 0 26.86010742 1.89941406 C28 4 28 4 28 6 C28.77537109 6.37898438 28.77537109 6.37898438 29.56640625 6.765625 C31.44694089 7.71947564 33.30489001 8.71793205 35.15234375 9.734375 C76.12460459 31.81832476 134.84553296 33.07709994 178.9375 20.1875 C186.1272245 17.94499416 192.75355198 14.94275741 199.34765625 11.3203125 C202 10 202 10 205 10 C182.20520412 32.79479588 136.00018951 36.31605928 105.8125 36.375 C73.87743922 36.29348484 31.97158978 35.02762518 7.36328125 11.4765625 C0.99163474 4.65479968 0.99163474 4.65479968 0 0 Z " fill="#352F39" transform="translate(28,88)"/>
<path d="M0 0 C0.70609406 0.00221558 1.41218811 0.00443115 2.13967896 0.00671387 C34.205017 0.12453616 74.74282721 1.07931611 99.25390625 25.01171875 C106.25 32.41854207 106.25 32.41854207 106.25 35.125 C102.1880443 35.29956339 98.12705413 35.4059442 94.0625 35.5 C92.91201172 35.55027344 91.76152344 35.60054687 90.57617188 35.65234375 C82.19382919 35.79812362 82.19382919 35.79812362 79.50927734 33.88354492 C78.26171875 32.31640625 78.26171875 32.31640625 76.25 29.125 C61.85959742 17.78782428 40.94387353 13.848455 23.25 11.125 C22.14003662 10.94767334 21.03007324 10.77034668 19.88647461 10.58764648 C9.0639694 9.03188107 -1.6425326 8.78521506 -12.56665039 8.80932617 C-15.54806193 8.8124847 -18.52847584 8.78893496 -21.50976562 8.76367188 C-44.53085199 8.68815547 -72.46073511 11.46527392 -92.58203125 23.87109375 C-93.29746094 24.28488281 -94.01289062 24.69867188 -94.75 25.125 C-95.41 24.795 -96.07 24.465 -96.75 24.125 C-71.81741431 2.82841639 -31.18161817 -0.13076563 0 0 Z " fill="#332C37" transform="translate(183.75,34.875)"/>
<path d="M0 0 C4.15672698 0.74227268 5.83984093 1.31995388 8.5 4.625 C9.22241241 7.77307359 9.19537012 10.47340316 8.5 13.625 C6.06579582 17.13311779 4.70657416 18.39876734 0.5 19.1875 C-3.34209775 18.46710667 -4.91773756 17.57615708 -7.5 14.625 C-8.82361074 11.18799974 -9.19502166 8.19376318 -7.6796875 4.7734375 C-5.43514318 1.63702126 -3.7661485 0.67252652 0 0 Z " fill="#F7F7F7" transform="translate(234.5,70.375)"/>
<path d="M0 0 C0.33 2.64 0.66 5.28 1 8 C0.46375 7.195625 -0.0725 6.39125 -0.625 5.5625 C-3.45383192 2.51033925 -4.9312528 2.26535308 -9 2 C-9.66 2 -10.32 2 -11 2 C-10.43065644 5.41606138 -9.66152899 7.46727533 -6.93359375 9.6640625 C-5.33761912 10.70413585 -3.72443349 11.7183616 -2.09375 12.703125 C0 14 0 14 2 16 C1.93049828 19.8225948 1.83828071 22.1337766 -0.875 24.9375 C-5.55574662 26.52895385 -10.1029384 26.23155983 -15 26 C-15 23.69 -15 21.38 -15 19 C-14.2265625 19.99 -14.2265625 19.99 -13.4375 21 C-10.20004245 23.65637543 -8.07447719 23.31342132 -4 23 C-3.67 21.35 -3.34 19.7 -3 18 C-3.78246094 17.49210937 -4.56492187 16.98421875 -5.37109375 16.4609375 C-6.38300781 15.77257812 -7.39492187 15.08421875 -8.4375 14.375 C-9.44683594 13.70210937 -10.45617187 13.02921875 -11.49609375 12.3359375 C-14 10 -14 10 -14.92578125 6.875 C-15 4 -15 4 -13.75 1.625 C-9.39966847 -0.94565045 -4.93286968 -0.30617812 0 0 Z " fill="#38323D" transform="translate(75,63)"/>
<path d="M0 0 C0.33 0.66 0.66 1.32 1 2 C1.75925781 1.96519531 2.51851562 1.93039063 3.30078125 1.89453125 C4.79158203 1.85392578 4.79158203 1.85392578 6.3125 1.8125 C7.29863281 1.77769531 8.28476562 1.74289063 9.30078125 1.70703125 C12 2 12 2 13.84765625 3.35546875 C15 5 15 5 15.125 7.5 C14 10 14 10 10.875 11.8125 C7.19061199 13.14676397 3.9191424 13.37684062 0 13 C-0.99 12.34 -1.98 11.68 -3 11 C-2.67 9.35 -2.34 7.7 -2 6 C-1.34 6 -0.68 6 0 6 C-0.2784375 4.7934375 -0.2784375 4.7934375 -0.5625 3.5625 C-0.706875 2.716875 -0.85125 1.87125 -1 1 C-0.67 0.67 -0.34 0.34 0 0 Z " fill="#3E3842" transform="translate(248,85)"/>
<path d="M0 0 C3.26483884 0.54413981 4.75284214 1.07998384 7 3.5 C7 4.82 7 6.14 7 7.5 C3.04 7.5 -0.92 7.5 -5 7.5 C-4.34 9.81 -3.68 12.12 -3 14.5 C-1.72125 14.520625 -0.4425 14.54125 0.875 14.5625 C1.59429687 14.57410156 2.31359375 14.58570312 3.0546875 14.59765625 C5.08185404 14.62649242 5.08185404 14.62649242 7 13.5 C6 16.5 6 16.5 4.25 17.6875 C1.55690408 18.66000686 -0.15784465 18.9263233 -3 18.5 C-5.3125 17.0625 -5.3125 17.0625 -7 14.5 C-7.84245122 9.93884995 -7.55460955 6.54522569 -5.375 2.4375 C-3 0.5 -3 0.5 0 0 Z " fill="#39333D" transform="translate(185,70.5)"/>
<path d="M0 0 C4.15672698 0.74227268 5.83984093 1.31995388 8.5 4.625 C9.22241241 7.77307359 9.19537012 10.47340316 8.5 13.625 C6.06579582 17.13311779 4.70657416 18.39876734 0.5 19.1875 C-3.34209775 18.46710667 -4.91773756 17.57615708 -7.5 14.625 C-8.82361074 11.18799974 -9.19502166 8.19376318 -7.6796875 4.7734375 C-5.43514318 1.63702126 -3.7661485 0.67252652 0 0 Z M-4.5 3.625 C-4.81889832 5.6969137 -4.81889832 5.6969137 -4.75 8 C-4.75515625 8.77085938 -4.7603125 9.54171875 -4.765625 10.3359375 C-4.47117944 12.87336537 -3.87781356 14.48015621 -2.5 16.625 C-0.09889783 17.70524658 -0.09889783 17.70524658 2.5 17.625 C4.49511774 16.80000647 4.49511774 16.80000647 5.5 14.625 C5.92044628 10.28038842 5.91335828 7.66927356 4.3125 3.625 C2.65248934 1.37966585 2.65248934 1.37966585 -0.0625 1.1875 C-2.67213728 1.41642762 -2.67213728 1.41642762 -4.5 3.625 Z " fill="#2E2633" transform="translate(234.5,70.375)"/>
<path d="M0 0 C3.3 0 6.6 0 10 0 C9.01 0.33 8.02 0.66 7 1 C8.14299502 3.64709291 9.28924372 6.29269052 10.4375 8.9375 C10.76298828 9.69224609 11.08847656 10.44699219 11.42382812 11.22460938 C12.80102606 14.87028689 12.80102606 14.87028689 15 18 C15.66 17.34 16.32 16.68 17 16 C16.51178906 20.29625631 15.70705488 22.6615409 13 26 C12.67725098 25.28344238 12.35450195 24.56688477 12.02197266 23.82861328 C10.56098057 20.59194581 9.09308456 17.35845625 7.625 14.125 C6.86316406 12.43310547 6.86316406 12.43310547 6.0859375 10.70703125 C5.59609375 9.63066406 5.10625 8.55429688 4.6015625 7.4453125 C4.15119629 6.45031738 3.70083008 5.45532227 3.23681641 4.43017578 C2.10753887 1.90123337 2.10753887 1.90123337 0 0 Z " fill="#342D38" transform="translate(157,63)"/>
<path d="M0 0 C2.9375 0.5 2.9375 0.5 4.8125 1.8125 C5.9375 3.5 5.9375 3.5 5.9375 6.5 C2.3075 6.5 -1.3225 6.5 -5.0625 6.5 C-4.0725 8.48 -3.0825 10.46 -2.0625 12.5 C2.7272321 12.73428313 2.7272321 12.73428313 6.9375 10.5 C5.56766497 13.66115776 4.9484362 14.4927092 1.9375 16.5 C-1.625 16.3125 -1.625 16.3125 -5.0625 15.5 C-7.5540904 11.7626144 -7.52043285 9.92668417 -7.0625 5.5 C-5.05368717 1.8686845 -4.13886419 0.67573293 0 0 Z " fill="#1D1422" transform="translate(126.0625,72.5)"/>
<path d="M0 0 C1.65 0 3.3 0 5 0 C6.32 3.3 7.64 6.6 9 10 C10.72264494 6.70450534 12.29445932 3.66881155 13 0 C13.99 0.33 14.98 0.66 16 1 C14.54990732 4.62835114 13.08854372 8.25205589 11.625 11.875 C11.2125 12.90753906 10.8 13.94007812 10.375 15.00390625 C9.97539063 15.99003906 9.57578125 16.97617188 9.1640625 17.9921875 C8.79748535 18.90339355 8.4309082 19.81459961 8.05322266 20.75341797 C7 23 7 23 5 25 C2.375 25.125 2.375 25.125 0 25 C0 24.01 0 23.02 0 22 C1.98 21.34 3.96 20.68 6 20 C6.33715892 14.4860469 5.44112982 10.99561651 3 6.0625 C2.443125 4.91910156 1.88625 3.77570313 1.3125 2.59765625 C0.6628125 1.31181641 0.6628125 1.31181641 0 0 Z " fill="#3A343E" transform="translate(77,72)"/>
<path d="M0 0 C0.01981934 0.71655762 0.03963867 1.43311523 0.06005859 2.17138672 C0.15509519 5.4063063 0.26486019 8.64056094 0.375 11.875 C0.4059375 13.00292969 0.436875 14.13085938 0.46875 15.29296875 C0.50742188 16.36933594 0.54609375 17.44570312 0.5859375 18.5546875 C0.6173584 19.54968262 0.6487793 20.54467773 0.68115234 21.56982422 C0.77247083 24.17854517 0.77247083 24.17854517 3 26 C0.03 26 -2.94 26 -6 26 C-5.01 25.67 -4.02 25.34 -3 25 C-3 17.41 -3 9.82 -3 2 C-3.99 1.67 -4.98 1.34 -6 1 C-3 0 -3 0 0 0 Z " fill="#2F2833" transform="translate(224,63)"/>
<path d="M0 0 C0.969375 0.185625 1.93875 0.37125 2.9375 0.5625 C3.618125 0.706875 4.29875 0.85125 5 1 C4.01 1.33 3.02 1.66 2 2 C2 4.31 2 6.62 2 9 C0.02 9.99 0.02 9.99 -2 11 C-2 7.7 -2 4.4 -2 1 C-3.65 1.33 -5.3 1.66 -7 2 C-7 4.64 -7 7.28 -7 10 C-6.34 10.33 -5.68 10.66 -5 11 C-5.99 11.33 -6.98 11.66 -8 12 C-8 11.34 -8 10.68 -8 10 C-8.99 9.67 -9.98 9.34 -11 9 C-11.48176187 2.6166552 -11.48176187 2.6166552 -9.4375 0 C-5.98642659 -1.41582499 -3.60828147 -0.75963821 0 0 Z " fill="#312B35" transform="translate(258,72)"/>
<path d="M0 0 C1.23104155 3.68400584 0.90767252 6.91474976 0.5625 10.75 C0.46066406 11.92046875 0.35882813 13.0909375 0.25390625 14.296875 C0.17011719 15.18890625 0.08632812 16.0809375 0 17 C0.99 17.33 1.98 17.66 3 18 C0.03 18 -2.94 18 -6 18 C-5.34 17.67 -4.68 17.34 -4 17 C-4 12.38 -4 7.76 -4 3 C-4.66 2.67 -5.32 2.34 -6 2 C-2.25 0 -2.25 0 0 0 Z " fill="#6D696F" transform="translate(200,71)"/>
<path d="M0 0 C0 5.61 0 11.22 0 17 C0.66 17.33 1.32 17.66 2 18 C-0.97 18 -3.94 18 -7 18 C-6.01 17.67 -5.02 17.34 -4 17 C-4 12.38 -4 7.76 -4 3 C-4.66 2.67 -5.32 2.34 -6 2 C-2.25 0 -2.25 0 0 0 Z " fill="#524D55" transform="translate(214,71)"/>
<path d="M0 0 C1.2065625 0.0309375 1.2065625 0.0309375 2.4375 0.0625 C3.93047212 3.04844424 3.55505228 5.77103624 3.4375 9.0625 C3.1075 9.7225 2.7775 10.3825 2.4375 11.0625 C1.10416667 11.39583333 -0.22916667 11.72916667 -1.5625 12.0625 C-1.8925 12.7225 -2.2225 13.3825 -2.5625 14.0625 C-3.2225 14.0625 -3.8825 14.0625 -4.5625 14.0625 C-4.8925 13.0725 -5.2225 12.0825 -5.5625 11.0625 C-4.9025 10.4025 -4.2425 9.7425 -3.5625 9.0625 C-3.5625 7.3748714 -3.59056577 5.68727726 -3.625 4 C-3.54173157 0.0863837 -3.54173157 0.0863837 0 0 Z " fill="#F7F7F7" transform="translate(253.5625,72.9375)"/>
<path d="M0 0 C1.65322266 0.01740234 1.65322266 0.01740234 3.33984375 0.03515625 C4.99693359 0.04869141 4.99693359 0.04869141 6.6875 0.0625 C7.54214844 0.07410156 8.39679688 0.08570312 9.27734375 0.09765625 C8.90234375 2.53515625 8.90234375 2.53515625 8.27734375 5.09765625 C5.87188737 6.30038444 4.32737422 6.19837097 1.65234375 6.16015625 C0.42644531 6.14662109 0.42644531 6.14662109 -0.82421875 6.1328125 C-1.76394531 6.11541016 -1.76394531 6.11541016 -2.72265625 6.09765625 C-3.10484392 4.44150968 -3.43660727 2.77308601 -3.72265625 1.09765625 C-2.72265625 0.09765625 -2.72265625 0.09765625 0 0 Z " fill="#F5F4F5" transform="translate(251.72265625,89.90234375)"/>
<path d="M0 0 C0.33 1.32 0.66 2.64 1 4 C2.32 4.33 3.64 4.66 5 5 C3.68 5 2.36 5 1 5 C1.0868748 6.95917659 1.19504512 8.91741871 1.3125 10.875 C1.37050781 11.96554688 1.42851563 13.05609375 1.48828125 14.1796875 C1.65714844 15.11039063 1.82601562 16.04109375 2 17 C2.99 17.66 3.98 18.32 5 19 C3.0085944 19.38133299 1.00720923 19.71325582 -1 20 C-2 19 -2 19 -2.09765625 15.83984375 C-2.08025391 13.90818359 -2.08025391 13.90818359 -2.0625 11.9375 C-2.05347656 10.64714844 -2.04445313 9.35679688 -2.03515625 8.02734375 C-2.02355469 7.02832031 -2.01195313 6.02929688 -2 5 C-2.66 4.67 -3.32 4.34 -4 4 C-2.68 2.68 -1.36 1.36 0 0 Z " fill="#2F2834" transform="translate(111,69)"/>
<path d="M0 0 C2.625 0.3125 2.625 0.3125 4.28515625 1.98046875 C5.94892194 4.87629416 5.87033773 6.62858301 5.6875 9.9375 C5.49598528 12.77541573 5.49598528 12.77541573 5.625 15.3125 C6.285 15.9725 6.945 16.6325 7.625 17.3125 C4.985 17.3125 2.345 17.3125 -0.375 17.3125 C0.285 16.9825 0.945 16.6525 1.625 16.3125 C1.56511859 14.18670987 1.47637256 12.06171587 1.375 9.9375 C1.32859375 8.75414063 1.2821875 7.57078125 1.234375 6.3515625 C0.96851201 3.19958247 0.96851201 3.19958247 -1.421875 1.8984375 C-2.06640625 1.70507812 -2.7109375 1.51171875 -3.375 1.3125 C-2.375 0.3125 -2.375 0.3125 0 0 Z " fill="#4E4951" transform="translate(145.375,71.6875)"/>
<path d="M0 0 C1.423125 0.4021875 1.423125 0.4021875 2.875 0.8125 C4.31707941 3.69665883 3.96894887 6.22971528 3.9375 9.4375 C3.92847656 10.62601563 3.91945312 11.81453125 3.91015625 13.0390625 C3.89855469 13.95429687 3.88695312 14.86953125 3.875 15.8125 C4.535 16.1425 5.195 16.4725 5.875 16.8125 C3.235 16.8125 0.595 16.8125 -2.125 16.8125 C-1.465 16.1525 -0.805 15.4925 -0.125 14.8125 C0.11839551 11.91366917 0.11839551 11.91366917 0 8.6875 C-0.02707031 7.04394531 -0.02707031 7.04394531 -0.0546875 5.3671875 C-0.07789063 4.52414063 -0.10109375 3.68109375 -0.125 2.8125 C-2.105 2.8125 -4.085 2.8125 -6.125 2.8125 C-4.13014789 0.04187207 -3.51239603 -0.21074376 0 0 Z " fill="#454048" transform="translate(157.125,72.1875)"/>
<path d="M0 0 C-1.98 0.99 -1.98 0.99 -4 2 C-4 2.99 -4 3.98 -4 5 C-2.865625 5.556875 -1.73125 6.11375 -0.5625 6.6875 C2.86983743 8.61818981 2.86983743 8.61818981 3.9375 11.75 C3.958125 12.4925 3.97875 13.235 4 14 C2.02 14.99 2.02 14.99 0 16 C-0.061875 14.88625 -0.061875 14.88625 -0.125 13.75 C-1.34358629 9.92015737 -3.70028271 9.13106742 -7 7 C-8.0625 4.9375 -8.0625 4.9375 -8 3 C-5.85915306 -0.33020635 -3.75910189 -0.30479204 0 0 Z " fill="#322B36" transform="translate(102,72)"/>
<path d="M0 0 C0 0.66 0 1.32 0 2 C0.66 2.33 1.32 2.66 2 3 C1.67 3.33 1.34 3.66 1 4 C0.76572222 6.01594582 0.58663876 8.038474 0.4375 10.0625 C0.35371094 11.16722656 0.26992187 12.27195312 0.18359375 13.41015625 C0.12300781 14.26480469 0.06242188 15.11945313 0 16 C0.66 16.33 1.32 16.66 2 17 C-0.64 17 -3.28 17 -6 17 C-5.01 16.67 -4.02 16.34 -3 16 C-3.33 11.05 -3.66 6.1 -4 1 C-2 0 -2 0 0 0 Z " fill="#3A343E" transform="translate(140,72)"/>
<path d="M0 0 C0.33 0.66 0.66 1.32 1 2 C0.67 2.99 0.34 3.98 0 5 C0.59793673 7.35188447 1.25881795 9.68925595 2 12 C3.27875 12.020625 4.5575 12.04125 5.875 12.0625 C6.59429687 12.07410156 7.31359375 12.08570312 8.0546875 12.09765625 C10.08185404 12.12649242 10.08185404 12.12649242 12 11 C11 14 11 14 9.25 15.1875 C6.55690408 16.16000686 4.84215535 16.4263233 2 16 C-0.3125 14.5625 -0.3125 14.5625 -2 12 C-2.69000365 7.28071581 -2.67770289 4.01655434 0 0 Z " fill="#2E2733" transform="translate(180,73)"/>
<path d="M0 0 C0.33 0 0.66 0 1 0 C1.66 3.3 2.32 6.6 3 10 C4.65 10.33 6.3 10.66 8 11 C8.99 11.33 9.98 11.66 11 12 C8.14675563 13.42662219 6.16545451 13.31033868 3 13 C0.1875 11.5 0.1875 11.5 -2 9 C-2.7094525 6.26652123 -2.85759646 3.84807084 -3 1 C-2.01 1.495 -2.01 1.495 -1 2 C-0.67 1.34 -0.34 0.68 0 0 Z " fill="#46414A" transform="translate(229,76)"/>
<path d="M0 0 C0.53625 0.66 1.0725 1.32 1.625 2 C3.87968669 4.26833699 3.87968669 4.26833699 7.0625 4.375 C10.18542374 4.19767963 10.18542374 4.19767963 13 2 C11.63016497 5.16115776 11.0109362 5.9927092 8 8 C4.3125 7.625 4.3125 7.625 1 7 C-0.0625 4.625 -0.0625 4.625 -1 2 C-0.67 1.34 -0.34 0.68 0 0 Z " fill="#504B54" transform="translate(120,81)"/>
<path d="M0 0 C0.66 0.33 1.32 0.66 2 1 C2.3566465 3.81254136 2.44413056 6.60155293 2.55859375 9.43359375 C2.70425781 10.28050781 2.84992188 11.12742187 3 12 C3.99 12.66 4.98 13.32 6 14 C3.03 14 0.06 14 -3 14 C-2.34 13.34 -1.68 12.68 -1 12 C-0.53603307 9.10776497 -0.53603307 9.10776497 -0.375 5.875 C-0.30023438 4.77929688 -0.22546875 3.68359375 -0.1484375 2.5546875 C-0.09945312 1.71164063 -0.05046875 0.86859375 0 0 Z " fill="#312B36" transform="translate(197,75)"/>
<path d="M0 0 C0.66 0 1.32 0 2 0 C2.33 1.32 2.66 2.64 3 4 C5.97 4.33 8.94 4.66 12 5 C8.31282562 7.45811625 6.35654296 7.31118164 2 7 C1.01 6.34 0.02 5.68 -1 5 C-0.67 3.35 -0.34 1.7 0 0 Z " fill="#302835" transform="translate(246,91)"/>
<path d="M0 0 C2.64 0 5.28 0 8 0 C7.56042969 0.53109375 7.12085938 1.0621875 6.66796875 1.609375 C4.73951807 4.37333711 3.56910376 7.12547173 2.3125 10.25 C1.87550781 11.32765625 1.43851563 12.4053125 0.98828125 13.515625 C0.66214844 14.33546875 0.33601562 15.1553125 0 16 C-1.28497537 12.14507389 -0.4052209 10.59653164 0.9375 6.8125 C1.31777344 5.72582031 1.69804687 4.63914062 2.08984375 3.51953125 C2.39019531 2.68808594 2.69054687 1.85664062 3 1 C2.01 0.67 1.02 0.34 0 0 Z " fill="#302A35" transform="translate(175,63)"/>
<path d="M0 0 C2.0625 0.4375 2.0625 0.4375 4 1 C4.33 2.32 4.66 3.64 5 5 C2.36 5 -0.28 5 -3 5 C-1.125 1.125 -1.125 1.125 0 0 Z " fill="#E9E9E9" transform="translate(183,72)"/>
<path d="M0 0 C2.97 0.495 2.97 0.495 6 1 C5.67 5.95 5.34 10.9 5 16 C4.67 16 4.34 16 4 16 C3.67 11.71 3.34 7.42 3 3 C1.02 3 -0.96 3 -3 3 C-1.875 1.4375 -1.875 1.4375 0 0 Z " fill="#2B2430" transform="translate(154,72)"/>
<path d="M0 0 C2.3125 -0.25 2.3125 -0.25 5 0 C7.34309569 2.29970503 7.9863092 3.48407286 8.07421875 6.796875 C7.88279297 8.25867188 7.88279297 8.25867188 7.6875 9.75 C7.50767578 11.22726563 7.50767578 11.22726563 7.32421875 12.734375 C7.21722656 13.48203125 7.11023438 14.2296875 7 15 C6.67 15 6.34 15 6 15 C6 11.37 6 7.74 6 4 C3.69 3.34 1.38 2.68 -1 2 C-0.67 1.34 -0.34 0.68 0 0 Z " fill="#2F2834" transform="translate(143,72)"/>
<path d="M0 0 C1.9375 1.5 1.9375 1.5 3 3 C2.34 3.66 1.68 4.32 1 5 C0.34 4.01 -0.32 3.02 -1 2 C-3.41263295 1.24914894 -3.41263295 1.24914894 -6 2 C-8.35322796 4.90412546 -8.35322796 4.90412546 -10 8 C-10.75 6.25 -10.75 6.25 -11 4 C-8.03098453 -0.4535232 -5.11689479 -0.65124116 0 0 Z " fill="#221B28" transform="translate(238,71)"/>
<path d="M0 0 C0.78375 0.04125 1.5675 0.0825 2.375 0.125 C0.395 1.115 0.395 1.115 -1.625 2.125 C-1.625 3.115 -1.625 4.105 -1.625 5.125 C-0.965 5.785 -0.305 6.445 0.375 7.125 C-0.615 7.785 -1.605 8.445 -2.625 9.125 C-4.1875 7.875 -4.1875 7.875 -5.625 6.125 C-5.27614752 2.28762273 -4.05514529 0.19310216 0 0 Z " fill="#3F3943" transform="translate(99.625,71.875)"/>
<path d="M0 0 C0 1.65 0 3.3 0 5 C-1.98 5.33 -3.96 5.66 -6 6 C-6 4.35 -6 2.7 -6 1 C-3 0 -3 0 0 0 Z " fill="#48424B" transform="translate(126,42)"/>
<path d="M0 0 C0.53625 0.639375 1.0725 1.27875 1.625 1.9375 C4.44367193 4.38529404 6.33860732 4.66714612 10 5 C6.3558226 7.4294516 4.28758728 7.16179575 0 7 C0 4.69 0 2.38 0 0 Z " fill="#4E4952" transform="translate(60,82)"/>
<path d="M0 0 C-2.39509338 2.89932357 -4.31245243 3.50168276 -8 4 C-8 3.01 -8 2.02 -8 1 C-3.375 -1.125 -3.375 -1.125 0 0 Z " fill="#332C38" transform="translate(219,106)"/>
<path d="M0 0 C0.66 0 1.32 0 2 0 C2.28875 1.134375 2.5775 2.26875 2.875 3.4375 C3.24625 4.613125 3.6175 5.78875 4 7 C4.66 7.33 5.32 7.66 6 8 C5.01 8.33 4.02 8.66 3 9 C3 8.34 3 7.68 3 7 C2.01 6.67 1.02 6.34 0 6 C0 4.02 0 2.04 0 0 Z " fill="#2E2733" transform="translate(247,75)"/>
<path d="M0 0 C0.639375 0.2475 1.27875 0.495 1.9375 0.75 C2.2675 1.74 2.5975 2.73 2.9375 3.75 C0.2975 3.75 -2.3425 3.75 -5.0625 3.75 C-4.7325 2.76 -4.4025 1.77 -4.0625 0.75 C-2.0625 -0.25 -2.0625 -0.25 0 0 Z " fill="#EFEEEF" transform="translate(126.0625,74.25)"/>
<path d="M0 0 C0.33 1.32 0.66 2.64 1 4 C2.32 4.33 3.64 4.66 5 5 C3.68 5 2.36 5 1 5 C0.67 5.66 0.34 6.32 0 7 C-1.32 6.01 -2.64 5.02 -4 4 C-2.68 2.68 -1.36 1.36 0 0 Z " fill="#38323C" transform="translate(111,69)"/>
<path d="M0 0 C5.5 -0.36666667 5.5 -0.36666667 7.875 1.375 C9 3 9 3 9 5 C7.0625 4.625 7.0625 4.625 5 4 C4.67 3.34 4.34 2.68 4 2 C2.35 2 0.7 2 -1 2 C-0.67 1.34 -0.34 0.68 0 0 Z " fill="#3A333E" transform="translate(123,73)"/>
<path d="M0 0 C0 0.99 0 1.98 0 3 C-3.13498292 4.85776765 -5.37471432 5.20140476 -9 5 C-6.47043472 1.9083091 -3.77545388 1.09068668 0 0 Z " fill="#3E3942" transform="translate(191,84)"/>
<path d="M0 0 C0 0.66 0 1.32 0 2 C-0.61875 2.0825 -1.2375 2.165 -1.875 2.25 C-4.18437567 2.81258459 -4.18437567 2.81258459 -5.25 5.0625 C-5.4975 5.701875 -5.745 6.34125 -6 7 C-6 6.01 -6 5.02 -6 4 C-6.66 3.67 -7.32 3.34 -8 3 C-4.93882432 0.37613513 -4.26826873 0 0 0 Z " fill="#635F65" transform="translate(255,71)"/>
<path d="M0 0 C0.20625 0.639375 0.4125 1.27875 0.625 1.9375 C1.89538209 4.34925077 1.89538209 4.34925077 5.125 4.75 C6.07375 4.8325 7.0225 4.915 8 5 C8 5.33 8 5.66 8 6 C5.36 6 2.72 6 0 6 C0 4.02 0 2.04 0 0 Z " fill="#615D65" transform="translate(94,83)"/>
<path d="M0 0 C0.66 0.33 1.32 0.66 2 1 C3.67654729 0.72057545 5.34608154 0.39171753 7 0 C7 0.66 7 1.32 7 2 C6.360625 2.12375 5.72125 2.2475 5.0625 2.375 C4.381875 2.58125 3.70125 2.7875 3 3 C2.67 3.66 2.34 4.32 2 5 C1.34 5 0.68 5 0 5 C-0.33 4.01 -0.66 3.02 -1 2 C-0.67 1.34 -0.34 0.68 0 0 Z " fill="#B9B8BA" transform="translate(249,82)"/>
<path d="M0 0 C1.98 0 3.96 0 6 0 C5.67 0.99 5.34 1.98 5 3 C3.35 3 1.7 3 0 3 C0 2.01 0 1.02 0 0 Z " fill="#2B2330" transform="translate(77,94)"/>
<path d="M0 0 C1.32 1.32 2.64 2.64 4 4 C3.01 4.99 2.02 5.98 1 7 C-0.0625 4.625 -0.0625 4.625 -1 2 C-0.67 1.34 -0.34 0.68 0 0 Z " fill="#3B353F" transform="translate(120,81)"/>
<path d="M0 0 C0.66 1.32 1.32 2.64 2 4 C0.35 4.33 -1.3 4.66 -3 5 C-3 4.01 -3 3.02 -3 2 C-2.01 1.34 -1.02 0.68 0 0 Z " fill="#3F3942" transform="translate(111,46)"/>
</svg>
